<svg width="32" height="32" viewBox="0 0 32 32" fill="none" xmlns="http://www.w3.org/2000/svg">
  <rect width="32" height="32" rx="8" fill="url(#gradient)"/>
  <path d="M6 16C8 13 10 13 12 16C14 19 16 19 18 16C20 13 22 13 24 16C26 19 28 19 28 16" stroke="white" stroke-width="2.5" stroke-linecap="round"/>
  <path d="M4 20C6 17 8 17 10 20C12 23 14 23 16 20C18 17 20 17 22 20C24 23 26 23 28 20" stroke="white" stroke-width="2" stroke-linecap="round" opacity="0.7"/>
  <ellipse cx="16" cy="10" rx="4" ry="3" fill="white" opacity="0.9"/>
  <defs>
    <linearGradient id="gradient" x1="0" y1="0" x2="32" y2="32">
      <stop offset="0%" stop-color="#0369a1"/>
      <stop offset="100%" stop-color="#0c4a6e"/>
    </linearGradient>
  </defs>
</svg>
